<svg width="20" height="22" viewBox="0 0 20 22" fill="none" xmlns="http://www.w3.org/2000/svg">
<path d="M18.9244 9.35748L3.16875 0.366854C2.83656 0.180769 2.45558 0.100233 2.0765 0.135958C1.69741 0.171682 1.33819 0.321974 1.04661 0.566842C0.755024 0.811711 0.544903 1.13955 0.444192 1.50675C0.343481 1.87396 0.356953 2.26312 0.482817 2.62248L3.31219 11L0.482817 19.3775C0.383344 19.6601 0.353048 19.9624 0.394468 20.2592C0.435888 20.5559 0.547816 20.8384 0.720877 21.083C0.893938 21.3276 1.12309 21.5271 1.38914 21.6649C1.65519 21.8027 1.95039 21.8747 2.25 21.875C2.5722 21.8743 2.88885 21.791 3.16969 21.6331L3.17813 21.6275L18.9281 12.6209C19.2169 12.4574 19.4571 12.2203 19.6243 11.9336C19.7914 11.6469 19.8795 11.321 19.8795 10.9892C19.8795 10.6574 19.7914 10.3315 19.6243 10.0448C19.4571 9.75812 19.2169 9.52095 18.9281 9.35748H18.9244ZM2.92407 19.1806L5.30719 12.125H10.5C10.7984 12.125 11.0845 12.0065 11.2955 11.7955C11.5065 11.5845 11.625 11.2983 11.625 11C11.625 10.7016 11.5065 10.4155 11.2955 10.2045C11.0845 9.99351 10.7984 9.87498 10.5 9.87498H5.30719L2.92313 2.81748L17.2444 10.9897L2.92407 19.1806Z" fill="#6B7280"/>
</svg>
