<svg width="24" height="25" viewBox="0 0 24 25" fill="none" xmlns="http://www.w3.org/2000/svg">
<path d="M21.9244 11.1695L6.16875 2.17887C5.83656 1.99278 5.45558 1.91225 5.0765 1.94797C4.69741 1.98369 4.33819 2.13399 4.04661 2.37885C3.75502 2.62372 3.5449 2.95156 3.44419 3.31876C3.34348 3.68597 3.35695 4.07513 3.48282 4.43449L6.31219 12.812L3.48282 21.1895C3.38334 21.4721 3.35305 21.7745 3.39447 22.0712C3.43589 22.3679 3.54782 22.6504 3.72088 22.895C3.89394 23.1396 4.12309 23.3391 4.38914 23.4769C4.65519 23.6147 4.95039 23.6868 5.25 23.687C5.5722 23.6863 5.88885 23.603 6.16969 23.4451L6.17813 23.4395L21.9281 14.4329C22.2169 14.2695 22.4571 14.0323 22.6243 13.7456C22.7914 13.4589 22.8795 13.133 22.8795 12.8012C22.8795 12.4694 22.7914 12.1435 22.6243 11.8568C22.4571 11.5701 22.2169 11.333 21.9281 11.1695H21.9244ZM5.92407 20.9926L8.30719 13.937H13.5C13.7984 13.937 14.0845 13.8185 14.2955 13.6075C14.5065 13.3965 14.625 13.1104 14.625 12.812C14.625 12.5136 14.5065 12.2275 14.2955 12.0165C14.0845 11.8055 13.7984 11.687 13.5 11.687H8.30719L5.92313 4.62949L20.2444 12.8017L5.92407 20.9926Z" fill="#6B7280"/>
</svg>
