<svg width="32" height="32" viewBox="0 0 32 32" fill="none" xmlns="http://www.w3.org/2000/svg">
<path d="M16.9999 15V22C16.9999 22.2652 16.8946 22.5196 16.7071 22.7071C16.5195 22.8946 16.2652 23 15.9999 23C15.7347 23 15.4804 22.8946 15.2928 22.7071C15.1053 22.5196 14.9999 22.2652 14.9999 22V15C14.9999 14.7348 15.1053 14.4804 15.2928 14.2929C15.4804 14.1054 15.7347 14 15.9999 14C16.2652 14 16.5195 14.1054 16.7071 14.2929C16.8946 14.4804 16.9999 14.7348 16.9999 15ZM21.6049 14.9L20.9049 21.9C20.8911 22.0311 20.9033 22.1636 20.9409 22.2899C20.9784 22.4162 21.0406 22.5339 21.1237 22.6361C21.2069 22.7383 21.3095 22.8231 21.4255 22.8855C21.5416 22.948 21.6688 22.9869 21.7999 23C21.8337 23.0019 21.8675 23.0019 21.9012 23C22.1489 22.9997 22.3876 22.9075 22.5712 22.7412C22.7548 22.5749 22.8702 22.3465 22.8949 22.1L23.5949 15.1C23.6215 14.8361 23.5421 14.5725 23.3742 14.3671C23.2064 14.1618 22.9638 14.0315 22.6999 14.005C22.4361 13.9785 22.1724 14.0579 21.9671 14.2257C21.7617 14.3936 21.6315 14.6361 21.6049 14.9ZM10.3949 14.9C10.3684 14.6361 10.2382 14.3936 10.0328 14.2257C9.82745 14.0579 9.56384 13.9785 9.29994 14.005C9.03605 14.0315 8.79351 14.1618 8.62566 14.3671C8.45782 14.5725 8.37842 14.8361 8.40494 15.1L9.10494 22.1C9.12982 22.3475 9.24606 22.5769 9.43097 22.7433C9.61588 22.9097 9.85618 23.0012 10.1049 23C10.1387 23.0019 10.1725 23.0019 10.2062 23C10.3369 22.9869 10.4637 22.9481 10.5794 22.886C10.695 22.8239 10.7974 22.7395 10.8805 22.6379C10.9636 22.5362 11.0259 22.4191 11.0637 22.2934C11.1016 22.1676 11.1143 22.0357 11.1012 21.905L10.3949 14.9ZM29.9912 11.1325L28.1074 25.265C28.0417 25.7446 27.8049 26.1844 27.4406 26.5032C27.0763 26.822 26.6091 26.9985 26.1249 27H5.87494C5.39083 26.9985 4.92359 26.822 4.55928 26.5032C4.19498 26.1844 3.95816 25.7446 3.89244 25.265L2.00869 11.1325C1.98981 10.9912 2.00134 10.8476 2.04251 10.7111C2.08368 10.5747 2.15354 10.4486 2.2474 10.3414C2.34127 10.2341 2.45697 10.1482 2.58676 10.0893C2.71655 10.0304 2.85743 9.99999 2.99994 10H8.5462L15.2499 2.34125C15.3438 2.23484 15.4592 2.14962 15.5885 2.09125C15.7178 2.03288 15.8581 2.00269 15.9999 2.00269C16.1418 2.00269 16.2821 2.03288 16.4114 2.09125C16.5407 2.14962 16.6561 2.23484 16.7499 2.34125L23.4537 10H28.9999C29.1425 9.99999 29.2833 10.0304 29.4131 10.0893C29.5429 10.1482 29.6586 10.2341 29.7525 10.3414C29.8463 10.4486 29.9162 10.5747 29.9574 10.7111C29.9985 10.8476 30.0101 10.9912 29.9912 11.1325ZM11.2037 10H20.7962L15.9999 4.51875L11.2037 10ZM27.8574 12H4.14244L5.87494 25H26.1249L27.8574 12Z" fill="#044A25"/>
</svg>
