<svg width="138" height="42" viewBox="0 0 138 42" fill="none" xmlns="http://www.w3.org/2000/svg">
<path d="M126.079 0.687012C126.376 0.687032 126.65 0.885473 126.843 1.14697C127.038 1.41196 127.169 1.76524 127.169 2.12158C127.169 2.20924 127.147 2.30094 127.12 2.38721C127.111 2.4156 127.098 2.44334 127.088 2.47217C128.715 2.40819 130.342 2.37549 131.936 2.37549C133.763 2.37549 135.558 2.40962 137.215 2.51318H137.214C137.408 2.51645 137.608 2.66509 137.608 2.91357C137.608 3.1637 137.456 3.45309 137.247 3.73096C137.034 4.01465 136.744 4.30997 136.432 4.57666C136.119 4.84364 135.779 5.0854 135.466 5.26123C135.158 5.43392 134.855 5.5542 134.623 5.5542C134.482 5.55416 133.899 5.52812 133.026 5.50244C132.149 5.47663 130.97 5.45069 129.628 5.45068C127.785 5.45068 125.907 5.51767 123.961 5.61963C111.815 16.9765 100.597 28.6769 90.1698 40.687C90.1052 40.7705 90.0229 40.8322 89.9423 40.8726C89.8608 40.9133 89.7727 40.9369 89.6971 40.937C89.5362 40.937 89.3891 40.8619 89.2645 40.7495C89.1399 40.6371 89.0301 40.4809 88.9393 40.2993C88.7576 39.936 88.6415 39.4516 88.6415 38.9517C88.6415 38.4827 88.7848 37.9037 89.1141 37.4644L89.12 37.4565C97.6697 27.5731 108.222 16.7074 120.033 5.90088C116.209 6.27872 112.305 6.85054 108.754 7.71045C108.472 8.13185 107.991 8.47534 107.442 8.71338C106.872 8.96089 106.218 9.10202 105.614 9.10205C104.983 9.10205 104.502 8.89421 104.179 8.57568C103.856 8.25825 103.697 7.83794 103.697 7.42725C103.697 7.118 103.918 6.82901 104.23 6.57275C104.548 6.31174 104.991 6.06003 105.497 5.82764C106.51 5.36219 107.803 4.9638 108.93 4.72119L108.931 4.72021C113.403 3.79142 118.559 3.10311 123.613 2.68896L125.721 0.821777L125.726 0.815918L125.734 0.811035C125.844 0.738104 125.938 0.687012 126.079 0.687012Z" fill="#F4EDE6" stroke="#044A25" stroke-width="0.25"/>
<path d="M89.1947 13.6414C89.3583 13.6414 89.5119 13.6927 89.6254 13.8005C89.7399 13.9094 89.8021 14.0647 89.8021 14.2488C89.8021 14.4286 89.7428 14.6455 89.6361 14.8855C89.5286 15.1273 89.3695 15.4016 89.1595 15.699L89.1566 15.7019C88.1179 17.0757 86.3987 19.062 84.4427 21.1912C87.5488 21.238 90.4577 21.5061 93.1361 21.8074L93.1429 21.8083L93.2953 21.8396C93.4393 21.875 93.5595 21.9249 93.6498 21.9988C93.7784 22.1042 93.8333 22.246 93.8334 22.4138C93.8334 22.5817 93.7488 22.761 93.6312 22.9255C93.5112 23.0934 93.3454 23.262 93.1576 23.4119C92.7864 23.7079 92.3023 23.9519 91.8822 23.9519H81.7357C79.2673 26.5218 76.7 29.0551 74.6088 31.0437C73.4414 32.4524 72.6791 33.6959 72.6791 35.0242C72.6792 35.5177 73.0131 35.9323 73.5531 35.9324C74.256 35.9324 75.0058 35.5795 75.6713 35.1316C76.3335 34.6859 76.8953 34.1576 77.2201 33.8328C77.2821 33.7547 77.3497 33.7072 77.4242 33.6824C77.498 33.6578 77.5697 33.6589 77.6185 33.6589C77.8675 33.6589 78.1069 33.8442 78.2748 34.071C78.4469 34.3037 78.5707 34.6135 78.5707 34.9207C78.5707 34.9984 78.5609 35.087 78.5404 35.1638C78.5302 35.2021 78.5161 35.2419 78.4965 35.2771C78.484 35.2994 78.4631 35.3222 78.4379 35.3445C78.1174 35.805 77.3786 36.6796 76.3129 37.4421C75.2398 38.2099 73.8284 38.8698 72.1752 38.8699C71.4894 38.8699 70.9019 38.6254 70.4877 38.156C70.0749 37.6882 69.8451 37.0095 69.8451 36.1609C69.8451 35.2144 70.1451 34.1794 70.6361 33.1111C71.1277 32.0416 71.8142 30.9305 72.5941 29.8308C74.0914 27.7197 75.9426 25.6381 77.4437 23.9519H72.0375C71.788 23.9519 71.5911 23.9162 71.4525 23.8416C71.3058 23.7624 71.223 23.6374 71.223 23.4822C71.223 23.3076 71.3037 23.1223 71.4291 22.947C71.556 22.7697 71.7375 22.5906 71.9584 22.4255C72.4004 22.0952 73.0137 21.8114 73.7064 21.7048H73.7084C75.9007 21.3965 78.0594 21.2237 80.1508 21.1873C83.2061 18.2027 86.121 15.6312 87.7719 14.2898L87.7728 14.2888C88.2981 13.8686 88.8082 13.6414 89.1947 13.6414Z" fill="#F4EDE6" stroke="#044A25" stroke-width="0.25"/>
<path d="M66.5729 27.4915C67.1124 27.4915 67.5937 27.6449 67.941 27.9641C68.2899 28.2848 68.4898 28.7597 68.4899 29.3733C68.4899 30.8665 67.4039 32.2269 65.8121 33.2141C64.2422 34.1878 62.1535 34.8157 60.0328 34.8694C60.0171 34.9847 60.0143 35.0806 60.0143 35.1614C60.0143 35.6818 60.1236 36.0028 60.3209 36.1965C60.5186 36.3906 60.8313 36.4836 61.3014 36.4836C63.3478 36.4836 65.7338 35.3387 67.7125 34.0999C69.6856 32.8645 71.2302 31.5512 71.5905 31.2424C71.8373 31.0308 71.9701 30.971 72.1198 30.9709C72.3779 30.9709 72.6502 31.1474 72.8492 31.3645C73.0505 31.584 73.2096 31.8803 73.2096 32.1643C73.2096 32.3062 73.1575 32.5124 72.8903 32.7415C72.5268 33.053 70.7379 34.5831 68.3434 36.0354C65.9529 37.4852 62.9394 38.8693 60.1305 38.8694C58.2471 38.8694 56.8357 37.5158 56.8356 35.9543C56.8356 33.8999 58.3266 31.783 60.2662 30.1897C62.208 28.5947 64.6384 27.4915 66.5729 27.4915ZM65.7115 29.6711C65.4545 29.6712 65.0932 29.7738 64.6666 29.969C64.2433 30.1627 63.7675 30.4416 63.2858 30.7805C62.3916 31.4096 61.4885 32.2405 60.8619 33.0999C61.986 33.039 63.286 32.5826 64.3336 32.0032C64.8954 31.6925 65.3786 31.35 65.7194 31.0208C65.8897 30.8561 66.0221 30.6971 66.111 30.55C66.2002 30.4022 66.2408 30.2732 66.2408 30.1663C66.2408 30.0327 66.2042 29.9099 66.1266 29.8225C66.0514 29.7379 65.9243 29.6711 65.7115 29.6711Z" fill="#F4EDE6" stroke="#044A25" stroke-width="0.25"/>
<path d="M54.5276 27.4915C55.0671 27.4915 55.5484 27.6449 55.8958 27.9641C56.2446 28.2848 56.4445 28.7597 56.4446 29.3733C56.4446 30.8665 55.3586 32.2269 53.7668 33.2141C52.1969 34.1878 50.1082 34.8157 47.9875 34.8694C47.9718 34.9847 47.969 35.0806 47.969 35.1614C47.969 35.6818 48.0784 36.0028 48.2756 36.1965C48.4733 36.3906 48.786 36.4836 49.2561 36.4836C51.3025 36.4836 53.6885 35.3387 55.6672 34.0999C57.6403 32.8645 59.1849 31.5512 59.5452 31.2424C59.792 31.0308 59.9248 30.971 60.0745 30.9709C60.3326 30.9709 60.6049 31.1474 60.804 31.3645C61.0052 31.584 61.1643 31.8803 61.1643 32.1643C61.1643 32.3062 61.1122 32.5124 60.845 32.7415C60.4815 33.053 58.6927 34.5831 56.2981 36.0354C53.9076 37.4852 50.8941 38.8693 48.0852 38.8694C46.2018 38.8694 44.7904 37.5158 44.7903 35.9543C44.7903 33.8999 46.2813 31.783 48.2209 30.1897C50.1627 28.5947 52.5931 27.4915 54.5276 27.4915ZM53.6663 29.6711C53.4092 29.6712 53.0479 29.7738 52.6213 29.969C52.1981 30.1627 51.7223 30.4416 51.2405 30.7805C50.3463 31.4096 49.4432 32.2405 48.8167 33.0999C49.9407 33.039 51.2407 32.5826 52.2883 32.0032C52.8501 31.6925 53.3333 31.35 53.6741 31.0208C53.8444 30.8561 53.9769 30.6971 54.0657 30.55C54.1549 30.4022 54.1955 30.2732 54.1956 30.1663C54.1956 30.0327 54.159 29.9099 54.0813 29.8225C54.0061 29.7379 53.879 29.6711 53.6663 29.6711Z" fill="#F4EDE6" stroke="#044A25" stroke-width="0.25"/>
<path d="M28.5579 27.3535C28.8842 27.3536 29.1491 27.61 29.3235 27.9004C29.5017 28.1974 29.6124 28.5727 29.6125 28.8906C29.6125 29.1021 29.5799 29.3207 29.4387 29.4619L29.4299 29.4707L29.3499 29.373L29.429 29.4707C28.0384 30.6038 26.883 31.7341 26.0764 32.7539C25.2647 33.7804 24.8235 34.6732 24.8235 35.334C24.8235 35.5581 24.9045 35.7009 25.0178 35.791C25.1357 35.8846 25.3034 35.9326 25.4915 35.9326C25.6637 35.9326 25.8884 35.8721 26.1624 35.748C26.4344 35.6248 26.7459 35.4426 27.0901 35.21C27.7786 34.7447 28.5876 34.0828 29.4553 33.2988C31.1901 31.7315 33.1503 29.6858 34.8362 27.7764C34.9659 27.5746 35.1737 27.4912 35.345 27.4912C35.6847 27.4912 35.9841 27.7516 36.1897 28.0645C36.3992 28.3833 36.5383 28.7947 36.5383 29.167C36.5383 29.4014 36.4596 29.6354 36.304 29.8301L36.2942 29.8418C35.2271 30.8917 34.2415 31.9284 33.5237 32.877C33.1649 33.3511 32.8748 33.8006 32.675 34.2158C32.475 34.6317 32.3694 35.0067 32.3694 35.334C32.3694 35.558 32.4495 35.7009 32.5627 35.791C32.6806 35.8846 32.8484 35.9326 33.0364 35.9326C33.2093 35.9326 33.4358 35.8732 33.7122 35.752C33.9867 35.6315 34.3017 35.4532 34.6487 35.2256C35.3424 34.7705 36.1558 34.123 37.0188 33.3545C38.7448 31.8174 40.6608 29.8062 42.2073 27.916L42.2249 27.8955L42.2483 27.8838C42.2672 27.8743 42.3308 27.8385 42.3772 27.8174C42.4309 27.793 42.5024 27.7666 42.5803 27.7666C42.8754 27.7668 43.1995 27.9808 43.4417 28.2676C43.6881 28.5597 43.8761 28.9577 43.8762 29.373C43.8762 29.4549 43.8769 29.5416 43.8547 29.625C43.8317 29.7112 43.7867 29.7873 43.7112 29.8652L42.512 31.3633C42.6294 31.7652 42.8185 32.0822 43.0823 32.3008C43.3577 32.5288 43.7242 32.6592 44.1995 32.6592C45.5997 32.6591 46.7419 31.8578 47.4602 31.2422C47.707 31.0307 47.8398 30.9707 47.9895 30.9707C48.2637 30.9709 48.536 31.1467 48.7327 31.3662C48.9307 31.5874 49.0783 31.8825 49.0784 32.1641C49.0784 32.306 49.0263 32.5121 48.759 32.7412C48.3983 33.0504 47.6597 33.7031 46.7288 34.2773C45.7995 34.8506 44.6638 35.3555 43.51 35.3555C42.0324 35.3554 40.9142 34.7131 40.4329 33.5918C36.9061 37.1871 33.9916 38.8348 31.6243 38.835C30.5774 38.835 29.7415 37.9725 29.7415 36.6426C29.7415 36.3706 29.7755 36.107 29.8079 35.8486C27.4891 37.8774 25.4457 38.835 23.803 38.835C23.1721 38.8349 22.6379 38.6275 22.262 38.2422C21.8862 37.8571 21.6799 37.306 21.6799 36.6426C21.6801 35.2609 22.3431 33.7622 23.4563 32.2373C24.5714 30.71 26.1483 29.1429 27.9963 27.623L28.0002 27.6191C28.2779 27.4109 28.4105 27.3535 28.5579 27.3535Z" fill="#F4EDE6" stroke="#044A25" stroke-width="0.25"/>
<path d="M35.4526 1.78955C36.8545 1.78958 38.7771 1.96203 40.354 2.62158C41.9351 3.28292 43.1909 4.44697 43.1909 6.42822C43.1908 8.30116 42.0023 10.3459 40.4595 12.0962C38.9131 13.8504 36.9887 15.3344 35.4731 16.0835H35.4722C34.2536 16.6754 33.0636 16.9575 32.1792 16.9575C31.758 16.9575 31.4036 16.9056 31.1499 16.8022C30.8999 16.7003 30.7106 16.5303 30.7104 16.2817C30.7104 16.001 30.9051 15.7613 31.3647 15.5483C32.4334 14.9103 34.4706 13.6437 36.2407 12.1216C37.1281 11.3585 37.9448 10.5347 38.5386 9.69775C39.1333 8.85933 39.4956 8.01884 39.4956 7.22021C39.4956 6.62865 39.3124 6.1707 39.0093 5.81299C38.7041 5.45293 38.2715 5.188 37.7671 4.99463C36.7561 4.60715 35.4839 4.52004 34.4536 4.52002C32.0734 4.52002 29.1383 5 26.3784 5.6792C23.6189 6.35834 21.0433 7.23437 19.3823 8.02197H19.3813C16.9423 9.1728 15.1659 10.3541 14.0005 11.562C12.8367 12.7682 12.2877 13.9962 12.2876 15.2476C12.2876 17.0667 13.4651 18.9998 15.7642 21.0464L16.2388 21.4575L16.2407 21.4585C18.6012 23.5066 19.9702 25.95 19.9702 28.5122C19.9702 31.6503 18.0682 34.294 15.4429 36.147C12.8173 38.0001 9.44976 39.0767 6.47705 39.0767C4.73699 39.0766 3.21894 38.668 2.13232 37.8862C1.04162 37.1015 0.392223 35.9445 0.39209 34.4731C0.39209 33.1133 1.11032 31.6693 3.01904 30.0034L3.02295 29.9995L3.17139 29.8911C3.54548 29.64 4.10502 29.4021 4.67334 29.2202C5.32412 29.012 6.0103 28.8697 6.47705 28.8696C6.60719 28.8696 6.74489 28.8876 6.854 28.9292C6.95168 28.9665 7.08447 29.0478 7.08447 29.2017C7.08441 29.2535 7.06783 29.3029 7.04736 29.3452C7.02628 29.3888 6.99704 29.4328 6.96338 29.4761C6.89599 29.5627 6.80271 29.6557 6.69482 29.7456C4.67092 31.4611 3.94973 32.807 3.94971 33.9214C3.94971 34.8183 4.42057 35.5062 5.11768 35.9751C5.81743 36.4457 6.7398 36.6909 7.61475 36.6909C9.46094 36.6908 11.839 35.858 13.7563 34.5044C15.6763 33.1489 17.1021 31.2947 17.1021 29.27C17.1019 27.5791 16.1034 25.7456 13.687 23.6274L13.1851 23.1997C10.6569 21.1218 8.97122 18.5748 8.97119 15.937C8.97119 12.5921 11.5498 9.03076 18.1128 5.92432L18.7603 5.62451C22.4938 3.89631 29.8152 1.78955 35.4526 1.78955Z" fill="#F4EDE6" stroke="#044A25" stroke-width="0.25"/>
</svg>
