<svg width="139" height="42" viewBox="0 0 139 42" fill="none" xmlns="http://www.w3.org/2000/svg">
<path d="M126.562 0.875C126.859 0.875037 127.133 1.07346 127.326 1.33496C127.521 1.59995 127.652 1.95323 127.652 2.30957C127.652 2.39722 127.63 2.48893 127.603 2.5752C127.594 2.60359 127.581 2.63133 127.571 2.66016C129.198 2.59618 130.824 2.56348 132.418 2.56348C134.246 2.56348 136.04 2.5976 137.698 2.70117H137.697C137.891 2.70447 138.09 2.8531 138.09 3.10156C138.09 3.35169 137.939 3.64108 137.73 3.91895C137.517 4.20265 137.227 4.49795 136.915 4.76465C136.602 5.03163 136.262 5.27338 135.949 5.44922C135.641 5.62191 135.338 5.74219 135.106 5.74219C134.965 5.74215 134.382 5.71611 133.509 5.69043C132.632 5.66462 131.453 5.63868 130.111 5.63867C128.268 5.63867 126.39 5.70566 124.444 5.80762C112.298 17.1645 101.08 28.8649 90.6528 40.875C90.5882 40.9585 90.506 41.0202 90.4253 41.0605C90.3439 41.1013 90.2558 41.1249 90.1802 41.125C90.0192 41.125 89.8722 41.0499 89.7476 40.9375C89.6229 40.8251 89.5132 40.6689 89.4224 40.4873C89.2407 40.1239 89.1245 39.6396 89.1245 39.1396C89.1245 38.6707 89.2679 38.0916 89.5972 37.6523L89.603 37.6445C98.1527 27.761 108.705 16.8953 120.516 6.08887C116.692 6.46671 112.788 7.03853 109.237 7.89844C108.955 8.31985 108.474 8.66332 107.925 8.90137C107.355 9.14888 106.701 9.29 106.097 9.29004C105.466 9.29004 104.985 9.08219 104.662 8.76367C104.34 8.44624 104.18 8.02593 104.18 7.61523C104.18 7.30599 104.401 7.017 104.713 6.76074C105.031 6.49972 105.474 6.24802 105.98 6.01562C106.994 5.55017 108.286 5.15179 109.413 4.90918L109.414 4.9082C113.886 3.97941 119.042 3.29109 124.096 2.87695L126.204 1.00977L126.209 1.00391L126.217 0.999023C126.327 0.9261 126.421 0.875 126.562 0.875Z" fill="#044A25" stroke="#044A25" stroke-width="0.25"/>
<path d="M89.6777 13.8293C89.8413 13.8293 89.9949 13.8807 90.1084 13.9885C90.2229 14.0973 90.2852 14.2527 90.2852 14.4368C90.2851 14.6166 90.2258 14.8334 90.1191 15.0735C90.0116 15.3153 89.8525 15.5895 89.6426 15.8869L89.6396 15.8899C88.6009 17.2637 86.8817 19.25 84.9258 21.3791C88.0319 21.426 90.9407 21.694 93.6191 21.9953L93.626 21.9963L93.7783 22.0276C93.9223 22.063 94.0425 22.1129 94.1328 22.1868C94.2615 22.2922 94.3164 22.4339 94.3164 22.6018C94.3164 22.7697 94.2318 22.949 94.1143 23.1135C93.9943 23.2814 93.8284 23.45 93.6406 23.5998C93.2694 23.8959 92.7853 24.1398 92.3652 24.1399H82.2188C79.7503 26.7098 77.183 29.2431 75.0918 31.2317C73.9244 32.6403 73.1621 33.8839 73.1621 35.2121C73.1622 35.7057 73.4961 36.1203 74.0361 36.1203C74.739 36.1203 75.4889 35.7675 76.1543 35.3196C76.8165 34.8738 77.3783 34.3456 77.7031 34.0207C77.7651 33.9427 77.8328 33.8952 77.9072 33.8703C77.981 33.8458 78.0527 33.8469 78.1016 33.8469C78.3505 33.8469 78.5899 34.0321 78.7578 34.259C78.9299 34.4916 79.0537 34.8015 79.0537 35.1086C79.0537 35.1864 79.0439 35.2749 79.0234 35.3518C79.0132 35.3901 78.9991 35.4299 78.9795 35.4651C78.967 35.4874 78.9462 35.5102 78.9209 35.5325C78.6004 35.9929 77.8617 36.8676 76.7959 37.6301C75.7228 38.3978 74.3114 39.0578 72.6582 39.0578C71.9724 39.0578 71.3849 38.8134 70.9707 38.344C70.5579 37.8761 70.3281 37.1975 70.3281 36.3489C70.3281 35.4024 70.6282 34.3674 71.1191 33.2991C71.6107 32.2295 72.2973 31.1184 73.0771 30.0188C74.5744 27.9077 76.4256 25.8261 77.9268 24.1399H72.5205C72.271 24.1399 72.0742 24.1042 71.9355 24.0295C71.7888 23.9504 71.7061 23.8254 71.7061 23.6702C71.7061 23.4956 71.7867 23.3102 71.9121 23.135C72.0391 22.9577 72.2205 22.7786 72.4414 22.6135C72.8834 22.2832 73.4967 21.9994 74.1895 21.8928H74.1914C76.3837 21.5845 78.5424 21.4117 80.6338 21.3752C83.6891 18.3907 86.604 15.8191 88.2549 14.4778L88.2559 14.4768C88.7812 14.0565 89.2913 13.8294 89.6777 13.8293Z" fill="#044A25" stroke="#044A25" stroke-width="0.25"/>
<path d="M67.0559 27.6794C67.5954 27.6794 68.0767 27.8329 68.4241 28.1521C68.7729 28.4728 68.9728 28.9477 68.9729 29.5613C68.9729 31.0545 67.8869 32.4148 66.2952 33.4021C64.7252 34.3758 62.6365 35.0036 60.5159 35.0574C60.5001 35.1727 60.4973 35.2686 60.4973 35.3493C60.4973 35.8698 60.6067 36.1908 60.804 36.3845C61.0016 36.5785 61.3143 36.6716 61.7844 36.6716C63.8309 36.6716 66.2168 35.5267 68.1956 34.2878C70.1686 33.0525 71.7132 31.7392 72.0735 31.4304C72.3204 31.2188 72.4531 31.1589 72.6028 31.1589C72.8609 31.1589 73.1332 31.3354 73.3323 31.5525C73.5335 31.772 73.6926 32.0682 73.6926 32.3523C73.6926 32.4942 73.6405 32.7004 73.3733 32.9294C73.0098 33.241 71.221 34.7711 68.8264 36.2234C66.4359 37.6732 63.4225 39.0573 60.6135 39.0574C58.7302 39.0574 57.3188 37.7038 57.3186 36.1423C57.3186 34.0878 58.8096 31.971 60.7493 30.3777C62.691 28.7827 65.1214 27.6794 67.0559 27.6794ZM66.1946 29.8591C65.9375 29.8591 65.5762 29.9618 65.1497 30.157C64.7264 30.3507 64.2506 30.6296 63.7688 30.9685C62.8746 31.5976 61.9715 32.4285 61.345 33.2878C62.469 33.227 63.769 32.7705 64.8167 32.1911C65.3784 31.8805 65.8616 31.538 66.2024 31.2087C66.3728 31.0441 66.5052 30.8851 66.594 30.738C66.6832 30.5901 66.7238 30.4612 66.7239 30.3542C66.7239 30.2207 66.6873 30.0979 66.6096 30.0105C66.5344 29.9259 66.4073 29.8591 66.1946 29.8591Z" fill="#044A25" stroke="#044A25" stroke-width="0.25"/>
<path d="M55.01 27.6794C55.5495 27.6794 56.0308 27.8329 56.3782 28.1521C56.727 28.4728 56.9269 28.9477 56.927 29.5613C56.927 31.0545 55.841 32.4148 54.2493 33.4021C52.6793 34.3758 50.5906 35.0036 48.47 35.0574C48.4542 35.1727 48.4514 35.2686 48.4514 35.3493C48.4514 35.8698 48.5608 36.1908 48.7581 36.3845C48.9557 36.5785 49.2684 36.6716 49.7385 36.6716C51.785 36.6716 54.1709 35.5267 56.1497 34.2878C58.1227 33.0525 59.6673 31.7392 60.0276 31.4304C60.2745 31.2188 60.4072 31.1589 60.5569 31.1589C60.815 31.1589 61.0873 31.3354 61.2864 31.5525C61.4876 31.772 61.6467 32.0682 61.6467 32.3523C61.6467 32.4942 61.5946 32.7004 61.3274 32.9294C60.9639 33.241 59.1751 34.7711 56.7805 36.2234C54.39 37.6732 51.3766 39.0573 48.5676 39.0574C46.6843 39.0574 45.2729 37.7038 45.2727 36.1423C45.2727 34.0878 46.7637 31.971 48.7034 30.3777C50.6451 28.7827 53.0755 27.6794 55.01 27.6794ZM54.1487 29.8591C53.8916 29.8591 53.5303 29.9618 53.1038 30.157C52.6805 30.3507 52.2047 30.6296 51.7229 30.9685C50.8287 31.5976 49.9256 32.4285 49.2991 33.2878C50.4231 33.227 51.7231 32.7705 52.7708 32.1911C53.3325 31.8805 53.8157 31.538 54.1565 31.2087C54.3269 31.0441 54.4593 30.8851 54.5481 30.738C54.6373 30.5901 54.6779 30.4612 54.678 30.3542C54.678 30.2207 54.6414 30.0979 54.5637 30.0105C54.4885 29.9259 54.3614 29.8591 54.1487 29.8591Z" fill="#044A25" stroke="#044A25" stroke-width="0.25"/>
<path d="M29.0408 27.5416C29.3671 27.5417 29.632 27.7981 29.8064 28.0885C29.9846 28.3855 30.0954 28.7609 30.0955 29.0788C30.0955 29.2903 30.0628 29.5088 29.9216 29.65L29.9128 29.6588L29.8328 29.5612L29.9119 29.6588C28.5213 30.7919 27.3659 31.9222 26.5593 32.942C25.7476 33.9685 25.3064 34.8613 25.3064 35.5221C25.3064 35.7462 25.3874 35.889 25.5007 35.9791C25.6186 36.0727 25.7863 36.1207 25.9744 36.1207C26.1466 36.1207 26.3713 36.0602 26.6453 35.9362C26.9173 35.813 27.2288 35.6307 27.573 35.3981C28.2615 34.9328 29.0705 34.2709 29.9382 33.487C31.673 31.9196 33.6332 29.8739 35.3191 27.9645C35.4488 27.7628 35.6566 27.6793 35.8279 27.6793C36.1676 27.6794 36.467 27.9397 36.6726 28.2526C36.8821 28.5714 37.0212 28.9828 37.0212 29.3551C37.0212 29.5895 36.9425 29.8236 36.7869 30.0182L36.7771 30.0299C35.71 31.0798 34.7244 32.1165 34.0066 33.0651C33.6478 33.5392 33.3577 33.9888 33.158 34.4039C32.958 34.8198 32.8523 35.1948 32.8523 35.5221C32.8523 35.7461 32.9324 35.889 33.0457 35.9791C33.1635 36.0727 33.3313 36.1207 33.5193 36.1207C33.6922 36.1207 33.9187 36.0613 34.1951 35.9401C34.4696 35.8196 34.7846 35.6413 35.1316 35.4137C35.8253 34.9587 36.6387 34.3112 37.5017 33.5426C39.2277 32.0055 41.1437 29.9943 42.6902 28.1041L42.7078 28.0836L42.7312 28.0719C42.7501 28.0625 42.8137 28.0266 42.8601 28.0055C42.9138 27.9811 42.9853 27.9547 43.0632 27.9547C43.3583 27.9549 43.6824 28.1689 43.9246 28.4557C44.171 28.7478 44.359 29.1458 44.3591 29.5612C44.3591 29.643 44.3599 29.7297 44.3376 29.8131C44.3147 29.8994 44.2696 29.9755 44.1941 30.0534L42.9949 31.5514C43.1123 31.9532 43.3005 32.2703 43.5642 32.4889C43.8396 32.7171 44.2069 32.8473 44.6824 32.8473C46.0826 32.8472 47.2249 32.046 47.9431 31.4303C48.1899 31.2189 48.3228 31.1588 48.4724 31.1588C48.7466 31.159 49.0189 31.3348 49.2156 31.5543C49.4136 31.7755 49.5613 32.0707 49.5613 32.3522C49.5613 32.4941 49.5092 32.7002 49.2419 32.9293C48.8812 33.2386 48.1418 33.8912 47.2107 34.4655C46.2814 35.0386 45.1466 35.5436 43.9929 35.5436C42.5153 35.5435 41.3971 34.9012 40.9158 33.7799C37.389 37.3752 34.4745 39.023 32.1072 39.0231C31.0604 39.0231 30.2244 38.1606 30.2244 36.8307C30.2244 36.5587 30.2584 36.2951 30.2908 36.0368C27.972 38.0655 25.9286 39.0231 24.2859 39.0231C23.655 39.023 23.1209 38.8156 22.7449 38.4303C22.3692 38.0453 22.1628 37.4942 22.1628 36.8307C22.163 35.449 22.826 33.9503 23.9392 32.4254C25.0543 30.8981 26.6312 29.331 28.4792 27.8112L28.4832 27.8073C28.7608 27.5991 28.8934 27.5416 29.0408 27.5416Z" fill="#044A25" stroke="#044A25" stroke-width="0.25"/>
<path d="M35.9355 1.97752C37.3374 1.97756 39.26 2.14999 40.8369 2.80956C42.418 3.47089 43.6738 4.63494 43.6738 6.6162C43.6737 8.48913 42.4852 10.5339 40.9424 12.2842C39.396 14.0384 37.4716 15.5224 35.9561 16.2715H35.9551C34.7365 16.8633 33.5466 17.1455 32.6621 17.1455C32.2409 17.1455 31.8865 17.0936 31.6328 16.9902C31.3828 16.8883 31.1935 16.7183 31.1934 16.4697C31.1934 16.1889 31.388 15.9492 31.8477 15.7363C32.9163 15.0983 34.9536 13.8316 36.7236 12.3096C37.611 11.5465 38.4277 10.7227 39.0215 9.88573C39.6162 9.04731 39.9785 8.20681 39.9785 7.40819C39.9785 6.81663 39.7953 6.35867 39.4922 6.00096C39.1871 5.6409 38.7544 5.37597 38.25 5.1826C37.2388 4.79505 35.9659 4.70799 34.9355 4.70799C32.5554 4.70806 29.621 5.18803 26.8613 5.86717C24.1018 6.54631 21.5262 7.42234 19.8652 8.20995H19.8643C17.4252 9.36077 15.6488 10.5421 14.4834 11.75C13.3197 12.9562 12.7706 14.1841 12.7705 15.4355C12.7705 17.2547 13.948 19.1878 16.2471 21.2344L16.7217 21.6455L16.7236 21.6465C19.0841 23.6946 20.4531 26.138 20.4531 28.7002C20.4531 31.8383 18.5511 34.482 15.9258 36.3349C13.3002 38.1881 9.93267 39.2646 6.95996 39.2646C5.2199 39.2646 3.70185 38.856 2.61523 38.0742C1.52453 37.2894 0.875132 36.1324 0.875 34.6611C0.875 33.3013 1.59323 31.8572 3.50195 30.1914L3.50586 30.1875L3.6543 30.0791C4.02839 29.828 4.58794 29.5901 5.15625 29.4082C5.80703 29.1999 6.49321 29.0577 6.95996 29.0576C7.0901 29.0576 7.2278 29.0756 7.33691 29.1172C7.43459 29.1544 7.56738 29.2357 7.56738 29.3896C7.56732 29.4414 7.55074 29.4909 7.53027 29.5332C7.50919 29.5767 7.47996 29.6208 7.44629 29.664C7.3789 29.7507 7.28562 29.8437 7.17773 29.9336C5.15383 31.6491 4.43264 32.995 4.43262 34.1094C4.43262 35.0063 4.90349 35.6942 5.60059 36.1631C6.30034 36.6337 7.22271 36.8789 8.09766 36.8789C9.94385 36.8788 12.3219 36.0459 14.2393 34.6924C16.1592 33.3368 17.585 31.4827 17.585 29.458C17.5849 27.767 16.5863 25.9336 14.1699 23.8154L13.668 23.3877C11.1399 21.3097 9.45413 18.7627 9.4541 16.125C9.4541 12.7801 12.0327 9.21873 18.5957 6.11229L19.2432 5.81248C22.9767 4.08429 30.2981 1.97752 35.9355 1.97752Z" fill="#044A25" stroke="#044A25" stroke-width="0.25"/>
</svg>
